<svg width="30" height="30" viewBox="0 0 30 30" fill="none" xmlns="http://www.w3.org/2000/svg">
<g clip-path="url(#clip0)">
<path d="M2.87941 10.4804C3.2589 10.7482 4.40284 11.5436 6.31129 12.8661C8.21979 14.1886 9.68184 15.2068 10.6975 15.921C10.8091 15.9993 11.0461 16.1694 11.4088 16.4317C11.7715 16.6942 12.0729 16.9063 12.3127 17.068C12.5527 17.2297 12.8429 17.4112 13.1834 17.612C13.5239 17.8127 13.8448 17.9636 14.1461 18.0635C14.4475 18.1642 14.7265 18.2141 14.9832 18.2141H15H15.0169C15.2735 18.2141 15.5526 18.1642 15.854 18.0635C16.1553 17.9636 16.4765 17.8125 16.8166 17.612C17.1569 17.4109 17.4471 17.2297 17.6871 17.068C17.9271 16.9063 18.2282 16.6942 18.5911 16.4317C18.9537 16.1692 19.191 15.9993 19.3026 15.921C20.3292 15.2068 22.9411 13.3932 27.1374 10.4801C27.9521 9.91114 28.6327 9.22462 29.1795 8.42101C29.7267 7.61775 30 6.77508 30 5.89348C30 5.15677 29.7348 4.52613 29.2046 4.00163C28.6745 3.47701 28.0466 3.21484 27.3214 3.21484H2.67846C1.81914 3.21484 1.15784 3.50498 0.694668 4.08525C0.231556 4.66563 0 5.39108 0 6.26154C0 6.96465 0.307021 7.72658 0.92077 8.54684C1.53446 9.36717 2.18755 10.0118 2.87941 10.4804Z" fill="white"/>
<path d="M28.3257 12.2709C24.6653 14.7483 21.886 16.6737 19.9889 18.0466C19.3528 18.5152 18.8367 18.881 18.4404 19.1431C18.0441 19.4054 17.517 19.6732 16.8584 19.9465C16.2 20.2202 15.5864 20.3567 15.0171 20.3567H15.0001H14.9832C14.414 20.3567 13.8001 20.2202 13.1417 19.9465C12.4834 19.6732 11.9559 19.4054 11.5597 19.1431C11.1636 18.881 10.6474 18.5152 10.0113 18.0466C8.50453 16.9418 5.73114 15.0163 1.69102 12.2709C1.0547 11.847 0.491081 11.3612 0 10.8145V24.1065C0 24.8435 0.262164 25.4738 0.786785 25.9984C1.31129 26.5231 1.94198 26.7854 2.67863 26.7854H27.3216C28.0581 26.7854 28.6887 26.5231 29.2133 25.9984C29.738 25.4737 30 24.8436 30 24.1065V10.8145C29.52 11.3499 28.9622 11.8357 28.3257 12.2709Z" fill="white"/>
</g>
<defs>
<clipPath id="clip0">
<rect width="30" height="30" fill="white"/>
</clipPath>
</defs>
</svg>
