<svg width="28" height="29" viewBox="0 0 28 29" fill="none" xmlns="http://www.w3.org/2000/svg">
<path d="M8.75 29H19.25C24.0817 29 28 24.9418 28 19.9375V9.0625C28 4.05819 24.0817 0 19.25 0H8.75C3.91825 0 0 4.05819 0 9.0625V19.9375C0 24.9418 3.91825 29 8.75 29ZM2.625 9.0625C2.625 5.56438 5.3725 2.71875 8.75 2.71875H19.25C22.6275 2.71875 25.375 5.56438 25.375 9.0625V19.9375C25.375 23.4356 22.6275 26.2812 19.25 26.2812H8.75C5.3725 26.2812 2.625 23.4356 2.625 19.9375V9.0625Z" fill="white"/>
<path d="M14 21.75C17.8658 21.75 21 18.5038 21 14.5C21 10.4962 17.8658 7.25 14 7.25C10.1342 7.25 7 10.4962 7 14.5C7 18.5038 10.1342 21.75 14 21.75ZM14 9.96875C16.4115 9.96875 18.375 12.0024 18.375 14.5C18.375 16.9994 16.4115 19.0312 14 19.0312C11.5885 19.0312 9.625 16.9994 9.625 14.5C9.625 12.0024 11.5885 9.96875 14 9.96875Z" fill="white"/>
<path d="M6.47545 21.3276C5.96031 21.3276 5.5427 21.7602 5.5427 22.2937C5.5427 22.8272 5.96031 23.2598 6.47545 23.2598C6.9906 23.2598 7.4082 22.8272 7.4082 22.2937C7.4082 21.7602 6.9906 21.3276 6.47545 21.3276Z" fill="white"/>
</svg>
