<svg width="89" height="75" viewBox="0 0 89 75" fill="none" xmlns="http://www.w3.org/2000/svg">
    <path d="M28.4848 33.6845C26.2928 33.0534 24.1008 32.7332 21.9685 32.7332C18.6758 32.7332 15.9283 33.4856 13.7979 34.4071C15.8517 26.888 20.7857 13.9141 30.6143 12.453C31.5245 12.3176 32.2704 11.6595 32.5188 10.7735L34.6669 3.09015C34.848 2.44038 34.7407 1.74486 34.37 1.18098C33.9994 0.617096 33.4038 0.240863 32.7363 0.149373C32.0109 0.0504132 31.2715 0 30.5387 0C18.7411 0 7.05752 12.3139 2.12734 29.9455C-0.766723 40.2896 -1.61534 55.8411 5.5134 65.6297C9.50254 71.107 15.3224 74.0319 22.8115 74.3241C22.8423 74.3251 22.8722 74.326 22.903 74.326C32.1435 74.326 40.3374 68.1028 42.83 59.1936C44.3191 53.8675 43.646 48.2819 40.933 43.4619C38.249 38.6959 33.8286 35.2221 28.4848 33.6845Z" fill="#FB5A1E" fill-opacity="0.2"/>
    <path d="M86.3277 43.4628C83.6437 38.6959 79.2232 35.2221 73.8795 33.6845C71.6875 33.0534 69.4954 32.7332 67.3641 32.7332C64.0714 32.7332 61.323 33.4856 59.1926 34.4071C61.2464 26.888 66.1803 13.9141 76.0099 12.453C76.9201 12.3176 77.6651 11.6595 77.9144 10.7735L80.0625 3.09015C80.2436 2.44038 80.1363 1.74486 79.7656 1.18098C79.3959 0.617096 78.8003 0.240863 78.1319 0.149373C77.4074 0.0504131 76.668 0 75.9343 0C64.1367 0 52.4531 12.3139 47.522 29.9455C44.6289 40.2896 43.7803 55.8411 50.9099 65.6316C54.8981 71.1079 60.7189 74.0338 68.2071 74.3251C68.2379 74.326 68.2678 74.3269 68.2995 74.3269C77.5391 74.3269 85.7339 68.1037 88.2266 59.1945C89.7137 53.8685 89.0397 48.2819 86.3277 43.4628Z" fill="#FB5A1E" fill-opacity="0.2"/>
</svg>
