<svg width="32" height="27" viewBox="0 0 32 27" fill="none" xmlns="http://www.w3.org/2000/svg">
<path d="M31.4911 3.14094C30.7801 3.46074 30.042 3.71303 29.2847 3.89568C30.1192 3.09132 30.7466 2.08523 31.1006 0.962248C31.2016 0.641657 30.8583 0.364434 30.5729 0.536086C29.5194 1.16999 28.3845 1.64553 27.1998 1.94966C27.131 1.96731 27.0601 1.97625 26.989 1.97625C26.7732 1.97625 26.5634 1.89498 26.3984 1.74746C25.1379 0.620606 23.5167 0 21.8336 0C21.1053 0 20.37 0.115147 19.648 0.342275C17.411 1.04606 15.685 2.91777 15.1434 5.22703C14.9403 6.09321 14.8853 6.96017 14.9798 7.80379C14.9907 7.90074 14.9455 7.9684 14.9177 8.00013C14.8687 8.05577 14.7994 8.08766 14.7274 8.08766C14.7193 8.08766 14.7111 8.08727 14.7029 8.08647C9.80622 7.62502 5.39064 5.2321 2.26948 1.3486C2.11032 1.15052 1.80511 1.17481 1.67825 1.39553C1.06704 2.45916 0.744043 3.67568 0.744043 4.91357C0.744043 6.81068 1.49545 8.5985 2.80063 9.90184C2.25177 9.76983 1.72053 9.56194 1.22706 9.28392C0.988321 9.14939 0.694579 9.32231 0.691224 9.59929C0.657051 12.4176 2.28375 14.9253 4.72061 16.0546C4.67153 16.0557 4.62246 16.0563 4.57331 16.0563C4.18703 16.0563 3.79592 16.0185 3.41098 15.9438C3.14212 15.8918 2.91626 16.1505 2.99974 16.4149C3.7907 18.9197 5.91688 20.766 8.46124 21.1852C6.34957 22.6231 3.89048 23.3815 1.33106 23.3815L0.533157 23.3811C0.287318 23.3811 0.0793963 23.5436 0.0167468 23.7851C-0.0449664 24.023 0.0687077 24.274 0.278346 24.3977C3.16241 26.1002 6.45209 27 9.79319 27C12.7177 27 15.4534 26.4113 17.9243 25.2503C20.1894 24.186 22.1911 22.6645 23.8736 20.7283C25.4411 18.9245 26.6667 16.8423 27.5165 14.5395C28.3266 12.3445 28.7548 10.0023 28.7548 7.76612V7.6596C28.7547 7.30055 28.9148 6.9627 29.1941 6.73273C30.254 5.85983 31.177 4.83229 31.9373 3.67868C32.138 3.37408 31.8214 2.99231 31.4911 3.14094Z" fill="white"/>
</svg>
