<svg width="30" height="30" viewBox="0 0 30 30" fill="none" xmlns="http://www.w3.org/2000/svg">
<path d="M7.09598 10.1172H1.33403C1.0783 10.1172 0.871094 10.3245 0.871094 10.5801V29.0908C0.871094 29.3465 1.0783 29.5537 1.33403 29.5537H7.09598C7.3517 29.5537 7.55891 29.3465 7.55891 29.0908V10.5801C7.55891 10.3245 7.3517 10.1172 7.09598 10.1172Z" fill="white"/>
<path d="M4.21428 0.914062C2.11774 0.914062 0.412109 2.61784 0.412109 4.71206C0.412109 6.80721 2.11774 8.51164 4.21428 8.51164C6.30914 8.51164 8.01339 6.80712 8.01339 4.71206C8.01348 2.61784 6.30914 0.914062 4.21428 0.914062Z" fill="white"/>
<path d="M21.7487 9.65625C19.4345 9.65625 17.7237 10.6511 16.6861 11.7815V10.5792C16.6861 10.3236 16.4789 10.1163 16.2232 10.1163H10.7051C10.4494 10.1163 10.2422 10.3236 10.2422 10.5792V29.0899C10.2422 29.3457 10.4494 29.5529 10.7051 29.5529H16.4545C16.7102 29.5529 16.9174 29.3457 16.9174 29.0899V19.9314C16.9174 16.8452 17.7557 15.6429 19.907 15.6429C22.25 15.6429 22.4362 17.5704 22.4362 20.0902V29.09C22.4362 29.3457 22.6434 29.553 22.8992 29.553H28.6507C28.9064 29.553 29.1136 29.3457 29.1136 29.09V18.9366C29.1136 14.3475 28.2385 9.65625 21.7487 9.65625Z" fill="white"/>
</svg>
