<svg width="409" height="436" viewBox="0 0 409 436" fill="none" xmlns="http://www.w3.org/2000/svg">
<path d="M31.6665 56.1983L25.5742 62.5435L23.1903 66.7736L20.2767 73.3831L13.1249 77.8776L8.3571 83.694V88.7173L4.11903 93.7405L8.3571 102.201V110.925V114.891V120.972L4.11903 127.846L2 134.191L4.11903 143.709L8.3571 148.996L13.1249 151.376L16.0386 154.813L20.2767 159.043L23.1903 163.802L25.5742 169.882L31.6665 173.319L36.4343 177.55L42.2616 181.78L43.586 187.067H49.9431L55.7704 190.504H61.5978L65.8358 187.067H73.2525H76.9608L81.9935 183.366L87.0262 187.067H90.7345L103.978 183.366L110.6 179.929H118.547H130.466L136.559 183.366L138.942 187.067L145.035 190.504L151.392 187.067L158.279 190.504L164.106 194.734V203.723L160.927 216.678L158.279 226.725L164.106 230.955L171.787 238.622L178.145 248.668L181.853 258.979L183.707 265.853V271.67L186.621 279.337L190.594 285.153L186.091 292.027L178.145 300.223L179.469 306.832L174.436 314.764V322.431L179.469 332.477L186.621 340.673V347.018L190.594 352.57V362.088L193.772 370.548V381.388L200.13 390.906L204.368 400.159L207.546 407.033L210.99 415.493V423.953L214.963 429.77L218.406 434H222.909L234.034 427.126H247.543H257.873L264.495 420.252L271.382 417.873L275.62 412.056L280.653 407.033L285.421 400.159L291.248 394.078L297.605 386.94V381.388V373.985L301.578 367.905H310.054L312.968 362.088L315.352 350.455L310.054 340.673L315.352 332.477L322.768 327.19L327.801 322.431L335.748 318.729L344.753 311.591L347.667 302.073V290.176L344.753 279.337L339.986 271.67V265.853V259.508L335.748 253.956L339.986 244.174L344.753 235.185L349.786 226.725L358.262 219.586L363.825 214.034L368.593 208.747L378.128 203.723L386.339 194.734L391.902 187.067L397.464 179.929L400.113 171.733L402.497 163.802L404.616 157.985L407 152.698L404.616 149.789H400.113L391.902 152.698H386.339L381.572 154.548H373.095H368.593H363.825L361.176 149.789L358.262 143.444L355.878 141.329L352.7 137.099L351.64 135.248H340.515V129.432L336.277 124.409L332.039 120.707V117.271V113.834L329.655 110.397L322.239 105.373V99.0282L319.59 91.0967L312.703 81.0502L307.67 70.7393L304.227 68.0955L300.784 59.1065L296.016 51.9682L291.513 48.2668L289.129 43.508L293.367 40.3354L296.016 43.508L298.135 47.2093L300.254 49.06L302.638 47.2093L304.227 41.9217L302.638 37.9559L300.784 35.0477H296.016H293.367H289.129H281.447H276.15L270.322 37.1628L266.084 35.0477L261.581 37.1628H257.608L252.311 35.0477L245.954 32.1395L239.067 30.2889H232.445L227.147 26.8519L222.909 30.2889V37.1628L219.995 40.3354H214.963H210.195L204.368 37.1628L199.335 35.0477H196.421H192.448V32.1395L188.74 30.2889L181.058 26.8519H177.615C176.908 27.9976 174.913 30.2889 172.582 30.2889C170.251 30.2889 171.611 27.9976 172.582 26.8519L167.814 23.6793L164.371 18.9204V16.541L167.814 13.3684V9.13831L164.371 2H157.219H121.196L116.163 4.11506L102.124 9.13831L92.8535 13.3684L83.053 10.989L77.7554 9.13831L73.5173 13.3684L69.5442 18.9204L60.5383 23.6793L56.5651 26.8519L49.9431 43.508L43.586 51.9682H39.3479L31.6665 56.1983Z" stroke="white" stroke-opacity="0.59" stroke-width="3"/>
</svg>
